<svg width="170" height="33" viewBox="0 0 170 33" fill="none" xmlns="http://www.w3.org/2000/svg">
<rect x="12.1978" width="26.74" height="17.25" rx="2" transform="rotate(45 12.1978 0)" fill="#2767FE"/>
<rect x="26.1978" y="1" width="26.74" height="17.25" rx="2" transform="rotate(45 26.1978 1)" fill="#FF0432"/>
<rect x="39.2598" y="1.41992" width="26.74" height="17.25" rx="3" transform="rotate(45 39.2598 1.41992)" fill="#F2CD06"/>
<path d="M68.5583 20.3719C67.8063 20.3719 67.1492 20.201 66.5871 19.8591C66.025 19.5173 65.5882 19.0425 65.2767 18.4349C64.9653 17.8196 64.8096 17.1055 64.8096 16.2927C64.8096 15.4723 64.9691 14.7507 65.2881 14.1278C65.6148 13.4973 66.0743 13.0074 66.6668 12.6579C67.2669 12.3009 67.9772 12.1224 68.7976 12.1224C69.7319 12.1224 70.5067 12.3465 71.122 12.7947C71.7373 13.2428 72.1361 13.8619 72.3184 14.6519H70.689C70.5675 14.2797 70.3472 13.9911 70.0282 13.786C69.7091 13.5733 69.2989 13.4669 68.7976 13.4669C68 13.4669 67.3847 13.7214 66.9517 14.2304C66.5187 14.7317 66.3022 15.423 66.3022 16.3041C66.3022 17.1853 66.5149 17.8689 66.9403 18.3551C67.3733 18.8337 67.9582 19.0729 68.695 19.0729C69.4167 19.0729 69.9598 18.8792 70.3244 18.4918C70.6966 18.0968 70.9207 17.5803 70.9967 16.9422H68.9799V15.8483H72.4665V20.2352H71.122L71.0081 19.1869C70.7498 19.5667 70.427 19.8591 70.0396 20.0642C69.6522 20.2693 69.1584 20.3719 68.5583 20.3719Z" fill="black"/>
<path d="M76.5621 20.3719C76.0152 20.3719 75.5214 20.2465 75.0808 19.9959C74.6478 19.7452 74.3022 19.3996 74.0439 18.959C73.7933 18.5108 73.6679 17.9943 73.6679 17.4094C73.6679 16.8245 73.7971 16.3117 74.0553 15.8711C74.3136 15.423 74.6592 15.0735 75.0922 14.8229C75.5328 14.5722 76.0266 14.4468 76.5735 14.4468C77.1128 14.4468 77.599 14.5722 78.0319 14.8229C78.4725 15.0735 78.8182 15.423 79.0688 15.8711C79.3271 16.3117 79.4562 16.8245 79.4562 17.4094C79.4562 17.9943 79.3271 18.5108 79.0688 18.959C78.8182 19.3996 78.4725 19.7452 78.0319 19.9959C77.5914 20.2465 77.1014 20.3719 76.5621 20.3719ZM76.5621 19.1071C76.9419 19.1071 77.2723 18.9666 77.5534 18.6855C77.8344 18.3969 77.975 17.9715 77.975 17.4094C77.975 16.8472 77.8344 16.4257 77.5534 16.1446C77.2723 15.8559 76.9457 15.7116 76.5735 15.7116C76.1861 15.7116 75.8518 15.8559 75.5708 16.1446C75.2973 16.4257 75.1606 16.8472 75.1606 17.4094C75.1606 17.9715 75.2973 18.3969 75.5708 18.6855C75.8518 18.9666 76.1823 19.1071 76.5621 19.1071Z" fill="black"/>
<path d="M80.7603 20.2352V12.0312H82.2187V20.2352H80.7603Z" fill="black"/>
<path d="M86.3069 20.3719C85.7752 20.3719 85.3004 20.2427 84.8826 19.9845C84.4648 19.7262 84.1344 19.373 83.8913 18.9248C83.6482 18.4766 83.5267 17.9677 83.5267 17.398C83.5267 16.8283 83.6482 16.3231 83.8913 15.8825C84.1344 15.4343 84.4648 15.0849 84.8826 14.8342C85.3004 14.576 85.7752 14.4468 86.3069 14.4468C86.7323 14.4468 87.1045 14.5266 87.4235 14.6861C87.7426 14.8456 88.0008 15.0697 88.1983 15.3584V12.0312H89.6568V20.2352H88.3579L88.1983 19.4262C88.016 19.6768 87.773 19.8971 87.4691 20.087C87.1729 20.2769 86.7854 20.3719 86.3069 20.3719ZM86.6145 19.0957C87.0855 19.0957 87.4691 18.94 87.7654 18.6286C88.0692 18.3095 88.2211 17.9031 88.2211 17.4094C88.2211 16.9156 88.0692 16.513 87.7654 16.2016C87.4691 15.8825 87.0855 15.723 86.6145 15.723C86.1512 15.723 85.7676 15.8787 85.4637 16.1902C85.1599 16.5016 85.0079 16.9042 85.0079 17.398C85.0079 17.8917 85.1599 18.2981 85.4637 18.6172C85.7676 18.9362 86.1512 19.0957 86.6145 19.0957Z" fill="black"/>
<path d="M97.5032 20.3719C96.698 20.3719 96.0068 20.201 95.4295 19.8591C94.8521 19.5097 94.4078 19.0274 94.0963 18.4121C93.7849 17.7892 93.6292 17.0713 93.6292 16.2585C93.6292 15.4457 93.7849 14.7279 94.0963 14.105C94.4078 13.4821 94.8521 12.996 95.4295 12.6465C96.0068 12.2971 96.698 12.1224 97.5032 12.1224C98.4603 12.1224 99.2427 12.3617 99.8504 12.8402C100.466 13.3112 100.849 13.9759 101.001 14.8342H99.3947C99.2959 14.4013 99.0832 14.0632 98.7566 13.8202C98.4375 13.5695 98.0122 13.4441 97.4804 13.4441C96.7436 13.4441 96.1663 13.6948 95.7485 14.1962C95.3307 14.6975 95.1218 15.385 95.1218 16.2585C95.1218 17.1321 95.3307 17.8196 95.7485 18.3209C96.1663 18.8147 96.7436 19.0615 97.4804 19.0615C98.0122 19.0615 98.4375 18.9476 98.7566 18.7197C99.0832 18.4842 99.2959 18.1614 99.3947 17.7512H101.001C100.849 18.5716 100.466 19.2135 99.8504 19.6768C99.2427 20.1402 98.4603 20.3719 97.5032 20.3719Z" fill="black"/>
<path d="M104.207 20.3719C103.72 20.3719 103.322 20.2959 103.01 20.144C102.699 19.9845 102.467 19.7756 102.315 19.5173C102.163 19.259 102.087 18.9742 102.087 18.6627C102.087 18.1386 102.292 17.7132 102.702 17.3866C103.113 17.0599 103.728 16.8966 104.548 16.8966H105.984V16.7599C105.984 16.3725 105.874 16.0876 105.654 15.9053C105.433 15.723 105.16 15.6319 104.833 15.6319C104.537 15.6319 104.279 15.704 104.058 15.8483C103.838 15.9851 103.701 16.1902 103.648 16.4636H102.224C102.262 16.0534 102.399 15.6964 102.634 15.3926C102.877 15.0887 103.189 14.857 103.568 14.6975C103.948 14.5304 104.374 14.4468 104.845 14.4468C105.65 14.4468 106.284 14.6481 106.747 15.0507C107.211 15.4533 107.443 16.0231 107.443 16.7599V20.2352H106.201L106.064 19.3236C105.897 19.6275 105.661 19.8781 105.357 20.0756C105.061 20.2731 104.678 20.3719 104.207 20.3719ZM104.537 19.2325C104.955 19.2325 105.278 19.0957 105.505 18.8223C105.741 18.5488 105.889 18.2108 105.95 17.8082H104.708C104.32 17.8082 104.043 17.8803 103.876 18.0247C103.709 18.1614 103.625 18.3323 103.625 18.5374C103.625 18.7577 103.709 18.9286 103.876 19.0501C104.043 19.1717 104.264 19.2325 104.537 19.2325Z" fill="black"/>
<path d="M108.834 20.2352V14.5836H110.133L110.27 15.6432C110.475 15.2786 110.752 14.99 111.102 14.7773C111.459 14.557 111.877 14.4468 112.355 14.4468V15.9851H111.945C111.626 15.9851 111.341 16.0344 111.09 16.1332C110.84 16.232 110.642 16.4029 110.498 16.6459C110.361 16.889 110.293 17.2271 110.293 17.66V20.2352H108.834Z" fill="black"/>
<path d="M115.85 20.3719C115.318 20.3719 114.843 20.2427 114.425 19.9845C114.008 19.7262 113.677 19.373 113.434 18.9248C113.191 18.4766 113.07 17.9677 113.07 17.398C113.07 16.8283 113.191 16.3231 113.434 15.8825C113.677 15.4343 114.008 15.0849 114.425 14.8342C114.843 14.576 115.318 14.4468 115.85 14.4468C116.275 14.4468 116.647 14.5266 116.966 14.6861C117.285 14.8456 117.544 15.0697 117.741 15.3584V12.0312H119.2V20.2352H117.901L117.741 19.4262C117.559 19.6768 117.316 19.8971 117.012 20.087C116.716 20.2769 116.328 20.3719 115.85 20.3719ZM116.157 19.0957C116.628 19.0957 117.012 18.94 117.308 18.6286C117.612 18.3095 117.764 17.9031 117.764 17.4094C117.764 16.9156 117.612 16.513 117.308 16.2016C117.012 15.8825 116.628 15.723 116.157 15.723C115.694 15.723 115.31 15.8787 115.007 16.1902C114.703 16.5016 114.551 16.9042 114.551 17.398C114.551 17.8917 114.703 18.2981 115.007 18.6172C115.31 18.9362 115.694 19.0957 116.157 19.0957Z" fill="black"/>
<path d="M122.921 20.2352L125.838 12.2591H127.479L130.396 20.2352H128.846L128.208 18.3893H125.098L124.448 20.2352H122.921ZM125.496 17.2498H127.809L126.647 13.9341L125.496 17.2498Z" fill="black"/>
<path d="M133.72 20.3719C133.188 20.3719 132.714 20.2427 132.296 19.9845C131.878 19.7262 131.548 19.373 131.305 18.9248C131.061 18.4766 130.94 17.9677 130.94 17.398C130.94 16.8283 131.061 16.3231 131.305 15.8825C131.548 15.4343 131.878 15.0849 132.296 14.8342C132.714 14.576 133.188 14.4468 133.72 14.4468C134.146 14.4468 134.518 14.5266 134.837 14.6861C135.156 14.8456 135.414 15.0697 135.612 15.3584V12.0312H137.07V20.2352H135.771L135.612 19.4262C135.429 19.6768 135.186 19.8971 134.882 20.087C134.586 20.2769 134.199 20.3719 133.72 20.3719ZM134.028 19.0957C134.499 19.0957 134.882 18.94 135.179 18.6286C135.482 18.3095 135.634 17.9031 135.634 17.4094C135.634 16.9156 135.482 16.513 135.179 16.2016C134.882 15.8825 134.499 15.723 134.028 15.723C133.564 15.723 133.181 15.8787 132.877 16.1902C132.573 16.5016 132.421 16.9042 132.421 17.398C132.421 17.8917 132.573 18.2981 132.877 18.6172C133.181 18.9362 133.564 19.0957 134.028 19.0957Z" fill="black"/>
<path d="M140.082 20.2352L138.008 14.5836H139.535L140.971 18.8564L142.406 14.5836H143.933L141.848 20.2352H140.082Z" fill="black"/>
<path d="M145.639 13.7062C145.374 13.7062 145.153 13.6265 144.979 13.4669C144.811 13.3074 144.728 13.1061 144.728 12.863C144.728 12.62 144.811 12.4225 144.979 12.2705C145.153 12.111 145.374 12.0312 145.639 12.0312C145.905 12.0312 146.122 12.111 146.289 12.2705C146.464 12.4225 146.551 12.62 146.551 12.863C146.551 13.1061 146.464 13.3074 146.289 13.4669C146.122 13.6265 145.905 13.7062 145.639 13.7062ZM144.91 20.2352V14.5836H146.369V20.2352H144.91Z" fill="black"/>
<path d="M150.227 20.3719C149.725 20.3719 149.285 20.2921 148.905 20.1326C148.525 19.9655 148.221 19.7376 147.994 19.4489C147.766 19.1603 147.629 18.8261 147.583 18.4462H149.053C149.099 18.6665 149.22 18.8564 149.418 19.016C149.623 19.1679 149.885 19.2438 150.204 19.2438C150.523 19.2438 150.755 19.1793 150.899 19.0501C151.051 18.921 151.127 18.7729 151.127 18.6058C151.127 18.3627 151.021 18.1994 150.808 18.1158C150.595 18.0247 150.299 17.9373 149.919 17.8537C149.676 17.8006 149.429 17.736 149.179 17.66C148.928 17.5841 148.696 17.4891 148.483 17.3752C148.278 17.2536 148.111 17.1017 147.982 16.9194C147.853 16.7295 147.788 16.4978 147.788 16.2244C147.788 15.723 147.986 15.3014 148.381 14.9596C148.784 14.6178 149.346 14.4468 150.067 14.4468C150.736 14.4468 151.267 14.6026 151.662 14.914C152.065 15.2255 152.304 15.6546 152.38 16.2016H151.002C150.918 15.7838 150.603 15.5749 150.056 15.5749C149.782 15.5749 149.57 15.6281 149.418 15.7344C149.273 15.8407 149.201 15.9737 149.201 16.1332C149.201 16.3003 149.311 16.4333 149.532 16.532C149.752 16.6308 150.045 16.7219 150.409 16.8055C150.804 16.8966 151.165 16.9992 151.492 17.1131C151.826 17.2195 152.092 17.3828 152.289 17.6031C152.487 17.8158 152.585 18.1234 152.585 18.526C152.593 18.8754 152.502 19.1907 152.312 19.4717C152.122 19.7528 151.849 19.9731 151.492 20.1326C151.135 20.2921 150.713 20.3719 150.227 20.3719Z" fill="black"/>
<path d="M156.589 20.3719C156.042 20.3719 155.549 20.2465 155.108 19.9959C154.675 19.7452 154.329 19.3996 154.071 18.959C153.82 18.5108 153.695 17.9943 153.695 17.4094C153.695 16.8245 153.824 16.3117 154.083 15.8711C154.341 15.423 154.686 15.0735 155.119 14.8229C155.56 14.5722 156.054 14.4468 156.601 14.4468C157.14 14.4468 157.626 14.5722 158.059 14.8229C158.5 15.0735 158.845 15.423 159.096 15.8711C159.354 16.3117 159.483 16.8245 159.483 17.4094C159.483 17.9943 159.354 18.5108 159.096 18.959C158.845 19.3996 158.5 19.7452 158.059 19.9959C157.619 20.2465 157.129 20.3719 156.589 20.3719ZM156.589 19.1071C156.969 19.1071 157.3 18.9666 157.581 18.6855C157.862 18.3969 158.002 17.9715 158.002 17.4094C158.002 16.8472 157.862 16.4257 157.581 16.1446C157.3 15.8559 156.973 15.7116 156.601 15.7116C156.213 15.7116 155.879 15.8559 155.598 16.1446C155.325 16.4257 155.188 16.8472 155.188 17.4094C155.188 17.9715 155.325 18.3969 155.598 18.6855C155.879 18.9666 156.209 19.1071 156.589 19.1071Z" fill="black"/>
<path d="M160.787 20.2352V14.5836H162.086L162.223 15.6432C162.428 15.2786 162.705 14.99 163.055 14.7773C163.412 14.557 163.83 14.4468 164.308 14.4468V15.9851H163.898C163.579 15.9851 163.294 16.0344 163.044 16.1332C162.793 16.232 162.595 16.4029 162.451 16.6459C162.314 16.889 162.246 17.2271 162.246 17.66V20.2352H160.787Z" fill="black"/>
<path d="M167.641 20.3719C167.14 20.3719 166.699 20.2921 166.319 20.1326C165.939 19.9655 165.636 19.7376 165.408 19.4489C165.18 19.1603 165.043 18.8261 164.997 18.4462H166.467C166.513 18.6665 166.634 18.8564 166.832 19.016C167.037 19.1679 167.299 19.2438 167.618 19.2438C167.937 19.2438 168.169 19.1793 168.313 19.0501C168.465 18.921 168.541 18.7729 168.541 18.6058C168.541 18.3627 168.435 18.1994 168.222 18.1158C168.009 18.0247 167.713 17.9373 167.333 17.8537C167.09 17.8006 166.843 17.736 166.593 17.66C166.342 17.5841 166.11 17.4891 165.898 17.3752C165.693 17.2536 165.525 17.1017 165.396 16.9194C165.267 16.7295 165.203 16.4978 165.203 16.2244C165.203 15.723 165.4 15.3014 165.795 14.9596C166.198 14.6178 166.76 14.4468 167.481 14.4468C168.15 14.4468 168.682 14.6026 169.077 14.914C169.479 15.2255 169.719 15.6546 169.794 16.2016H168.416C168.332 15.7838 168.017 15.5749 167.47 15.5749C167.197 15.5749 166.984 15.6281 166.832 15.7344C166.688 15.8407 166.615 15.9737 166.615 16.1332C166.615 16.3003 166.726 16.4333 166.946 16.532C167.166 16.6308 167.459 16.7219 167.823 16.8055C168.218 16.8966 168.579 16.9992 168.906 17.1131C169.24 17.2195 169.506 17.3828 169.703 17.6031C169.901 17.8158 170 18.1234 170 18.526C170.007 18.8754 169.916 19.1907 169.726 19.4717C169.536 19.7528 169.263 19.9731 168.906 20.1326C168.549 20.2921 168.127 20.3719 167.641 20.3719Z" fill="black"/>
</svg>
