<svg width="170" height="28" viewBox="0 0 170 28" fill="none" xmlns="http://www.w3.org/2000/svg">
<rect width="24.6917" height="15.9287" rx="2" transform="matrix(0.765764 0.643122 -0.765764 0.643122 12.1978 0)" fill="#2767FE"/>
<rect width="24.6917" height="15.9287" rx="2" transform="matrix(0.765764 0.643122 -0.765764 0.643122 26.1978 0.839844)" fill="#FF0432"/>
<rect width="24.6917" height="15.9287" rx="3" transform="matrix(0.765764 0.643122 -0.765764 0.643122 39.2598 1.19263)" fill="#F2CD06"/>
<path d="M68.5583 17.1093C67.8063 17.1093 67.1492 16.9658 66.5871 16.6787C66.025 16.3916 65.5882 15.9929 65.2767 15.4825C64.9653 14.9658 64.8096 14.3661 64.8096 13.6835C64.8096 12.9945 64.9691 12.3884 65.2881 11.8653C65.6148 11.3358 66.0743 10.9243 66.6668 10.6308C67.2669 10.331 67.9772 10.181 68.7976 10.181C69.7319 10.181 70.5067 10.3692 71.122 10.7456C71.7373 11.122 72.1361 11.642 72.3184 12.3055H70.689C70.5675 11.9929 70.3472 11.7504 70.0282 11.5782C69.7091 11.3996 69.2989 11.3102 68.7976 11.3102C68 11.3102 67.3847 11.524 66.9517 11.9514C66.5187 12.3724 66.3022 12.953 66.3022 13.693C66.3022 14.4331 66.5149 15.0072 66.9403 15.4155C67.3733 15.8174 67.9582 16.0184 68.695 16.0184C69.4167 16.0184 69.9598 15.8557 70.3244 15.5304C70.6966 15.1986 70.9207 14.7648 70.9967 14.2289H68.9799V13.3103H72.4665V16.9945H71.122L71.0081 16.1141C70.7498 16.4331 70.427 16.6787 70.0396 16.8509C69.6522 17.0232 69.1584 17.1093 68.5583 17.1093Z" fill="black"/>
<path d="M76.5621 17.1093C76.0152 17.1093 75.5214 17.0041 75.0808 16.7935C74.6478 16.583 74.3022 16.2927 74.0439 15.9227C73.7933 15.5463 73.6679 15.1125 73.6679 14.6213C73.6679 14.13 73.7971 13.6994 74.0553 13.3294C74.3136 12.953 74.6592 12.6595 75.0922 12.449C75.5328 12.2385 76.0266 12.1332 76.5735 12.1332C77.1128 12.1332 77.599 12.2385 78.0319 12.449C78.4725 12.6595 78.8182 12.953 79.0688 13.3294C79.3271 13.6994 79.4562 14.13 79.4562 14.6213C79.4562 15.1125 79.3271 15.5463 79.0688 15.9227C78.8182 16.2927 78.4725 16.583 78.0319 16.7935C77.5914 17.0041 77.1014 17.1093 76.5621 17.1093ZM76.5621 16.0471C76.9419 16.0471 77.2723 15.9291 77.5534 15.693C77.8344 15.4506 77.975 15.0934 77.975 14.6213C77.975 14.1492 77.8344 13.7951 77.5534 13.5591C77.2723 13.3166 76.9457 13.1954 76.5735 13.1954C76.1861 13.1954 75.8518 13.3166 75.5708 13.5591C75.2973 13.7951 75.1606 14.1492 75.1606 14.6213C75.1606 15.0934 75.2973 15.4506 75.5708 15.693C75.8518 15.9291 76.1823 16.0471 76.5621 16.0471Z" fill="black"/>
<path d="M80.7603 16.9945V10.1045H82.2187V16.9945H80.7603Z" fill="black"/>
<path d="M86.3069 17.1093C85.7752 17.1093 85.3004 17.0009 84.8826 16.784C84.4648 16.5671 84.1344 16.2704 83.8913 15.894C83.6482 15.5176 83.5267 15.0902 83.5267 14.6117C83.5267 14.1332 83.6482 13.709 83.8913 13.339C84.1344 12.9626 84.4648 12.6691 84.8826 12.4586C85.3004 12.2417 85.7752 12.1332 86.3069 12.1332C86.7323 12.1332 87.1045 12.2002 87.4235 12.3342C87.7426 12.4681 88.0008 12.6563 88.1983 12.8988V10.1045H89.6568V16.9945H88.3579L88.1983 16.3151C88.016 16.5256 87.773 16.7106 87.4691 16.8701C87.1729 17.0296 86.7854 17.1093 86.3069 17.1093ZM86.6145 16.0375C87.0855 16.0375 87.4691 15.9068 87.7654 15.6452C88.0692 15.3773 88.2211 15.0359 88.2211 14.6213C88.2211 14.2066 88.0692 13.8685 87.7654 13.6069C87.4691 13.339 87.0855 13.205 86.6145 13.205C86.1512 13.205 85.7676 13.3358 85.4637 13.5973C85.1599 13.8589 85.0079 14.197 85.0079 14.6117C85.0079 15.0264 85.1599 15.3677 85.4637 15.6356C85.7676 15.9036 86.1512 16.0375 86.6145 16.0375Z" fill="black"/>
<path d="M97.5032 17.1093C96.698 17.1093 96.0068 16.9658 95.4295 16.6787C94.8521 16.3852 94.4078 15.9801 94.0963 15.4634C93.7849 14.9402 93.6292 14.3374 93.6292 13.6548C93.6292 12.9721 93.7849 12.3693 94.0963 11.8461C94.4078 11.323 94.8521 10.9147 95.4295 10.6212C96.0068 10.3278 96.698 10.181 97.5032 10.181C98.4603 10.181 99.2427 10.382 99.8504 10.7839C100.466 11.1795 100.849 11.7377 101.001 12.4586H99.3947C99.2959 12.0949 99.0832 11.811 98.7566 11.6069C98.4375 11.3964 98.0122 11.2911 97.4804 11.2911C96.7436 11.2911 96.1663 11.5016 95.7485 11.9227C95.3307 12.3437 95.1218 12.9211 95.1218 13.6548C95.1218 14.3884 95.3307 14.9658 95.7485 15.3868C96.1663 15.8015 96.7436 16.0088 97.4804 16.0088C98.0122 16.0088 98.4375 15.9131 98.7566 15.7218C99.0832 15.524 99.2959 15.2528 99.3947 14.9083H101.001C100.849 15.5973 100.466 16.1364 99.8504 16.5256C99.2427 16.9147 98.4603 17.1093 97.5032 17.1093Z" fill="black"/>
<path d="M104.207 17.1093C103.72 17.1093 103.322 17.0455 103.01 16.9179C102.699 16.784 102.467 16.6085 102.315 16.3916C102.163 16.1747 102.087 15.9355 102.087 15.6739C102.087 15.2337 102.292 14.8765 102.702 14.6021C103.113 14.3278 103.728 14.1906 104.548 14.1906H105.984V14.0758C105.984 13.7504 105.874 13.5112 105.654 13.3581C105.433 13.205 105.16 13.1284 104.833 13.1284C104.537 13.1284 104.279 13.189 104.058 13.3103C103.838 13.4251 103.701 13.5973 103.648 13.827H102.224C102.262 13.4825 102.399 13.1827 102.634 12.9275C102.877 12.6723 103.189 12.4777 103.568 12.3437C103.948 12.2034 104.374 12.1332 104.845 12.1332C105.65 12.1332 106.284 12.3023 106.747 12.6404C107.211 12.9785 107.443 13.457 107.443 14.0758V16.9945H106.201L106.064 16.2289C105.897 16.4841 105.661 16.6946 105.357 16.8605C105.061 17.0264 104.678 17.1093 104.207 17.1093ZM104.537 16.1524C104.955 16.1524 105.278 16.0375 105.505 15.8079C105.741 15.5782 105.889 15.2943 105.95 14.9562H104.708C104.32 14.9562 104.043 15.0168 103.876 15.138C103.709 15.2528 103.625 15.3964 103.625 15.5686C103.625 15.7536 103.709 15.8972 103.876 15.9993C104.043 16.1013 104.264 16.1524 104.537 16.1524Z" fill="black"/>
<path d="M108.834 16.9945V12.248H110.133L110.27 13.138C110.475 12.8318 110.752 12.5894 111.102 12.4107C111.459 12.2257 111.877 12.1332 112.355 12.1332V13.4251H111.945C111.626 13.4251 111.341 13.4666 111.09 13.5495C110.84 13.6324 110.642 13.776 110.498 13.9801C110.361 14.1843 110.293 14.4682 110.293 14.8318V16.9945H108.834Z" fill="black"/>
<path d="M115.85 17.1093C115.318 17.1093 114.843 17.0009 114.425 16.784C114.008 16.5671 113.677 16.2704 113.434 15.894C113.191 15.5176 113.07 15.0902 113.07 14.6117C113.07 14.1332 113.191 13.709 113.434 13.339C113.677 12.9626 114.008 12.6691 114.425 12.4586C114.843 12.2417 115.318 12.1332 115.85 12.1332C116.275 12.1332 116.647 12.2002 116.966 12.3342C117.285 12.4681 117.544 12.6563 117.741 12.8988V10.1045H119.2V16.9945H117.901L117.741 16.3151C117.559 16.5256 117.316 16.7106 117.012 16.8701C116.716 17.0296 116.328 17.1093 115.85 17.1093ZM116.157 16.0375C116.628 16.0375 117.012 15.9068 117.308 15.6452C117.612 15.3773 117.764 15.0359 117.764 14.6213C117.764 14.2066 117.612 13.8685 117.308 13.6069C117.012 13.339 116.628 13.205 116.157 13.205C115.694 13.205 115.31 13.3358 115.007 13.5973C114.703 13.8589 114.551 14.197 114.551 14.6117C114.551 15.0264 114.703 15.3677 115.007 15.6356C115.31 15.9036 115.694 16.0375 116.157 16.0375Z" fill="black"/>
<path d="M122.921 16.9945L125.838 10.2959H127.479L130.396 16.9945H128.846L128.208 15.4442H125.098L124.448 16.9945H122.921ZM125.496 14.4873H127.809L126.647 11.7026L125.496 14.4873Z" fill="black"/>
<path d="M133.72 17.1093C133.188 17.1093 132.714 17.0009 132.296 16.784C131.878 16.5671 131.548 16.2704 131.305 15.894C131.061 15.5176 130.94 15.0902 130.94 14.6117C130.94 14.1332 131.061 13.709 131.305 13.339C131.548 12.9626 131.878 12.6691 132.296 12.4586C132.714 12.2417 133.188 12.1332 133.72 12.1332C134.146 12.1332 134.518 12.2002 134.837 12.3342C135.156 12.4681 135.414 12.6563 135.612 12.8988V10.1045H137.07V16.9945H135.771L135.612 16.3151C135.429 16.5256 135.186 16.7106 134.882 16.8701C134.586 17.0296 134.199 17.1093 133.72 17.1093ZM134.028 16.0375C134.499 16.0375 134.882 15.9068 135.179 15.6452C135.482 15.3773 135.634 15.0359 135.634 14.6213C135.634 14.2066 135.482 13.8685 135.179 13.6069C134.882 13.339 134.499 13.205 134.028 13.205C133.564 13.205 133.181 13.3358 132.877 13.5973C132.573 13.8589 132.421 14.197 132.421 14.6117C132.421 15.0264 132.573 15.3677 132.877 15.6356C133.181 15.9036 133.564 16.0375 134.028 16.0375Z" fill="black"/>
<path d="M140.082 16.9945L138.008 12.248H139.535L140.971 15.8366L142.406 12.248H143.933L141.848 16.9945H140.082Z" fill="black"/>
<path d="M145.639 11.5112C145.374 11.5112 145.153 11.4442 144.979 11.3102C144.811 11.1763 144.728 11.0072 144.728 10.8031C144.728 10.5989 144.811 10.433 144.979 10.3055C145.153 10.1715 145.374 10.1045 145.639 10.1045C145.905 10.1045 146.122 10.1715 146.289 10.3055C146.464 10.433 146.551 10.5989 146.551 10.8031C146.551 11.0072 146.464 11.1763 146.289 11.3102C146.122 11.4442 145.905 11.5112 145.639 11.5112ZM144.91 16.9945V12.248H146.369V16.9945H144.91Z" fill="black"/>
<path d="M150.227 17.1093C149.725 17.1093 149.285 17.0423 148.905 16.9084C148.525 16.768 148.221 16.5766 147.994 16.3342C147.766 16.0918 147.629 15.8111 147.583 15.4921H149.053C149.099 15.6771 149.22 15.8366 149.418 15.9706C149.623 16.0981 149.885 16.1619 150.204 16.1619C150.523 16.1619 150.755 16.1077 150.899 15.9993C151.051 15.8908 151.127 15.7664 151.127 15.6261C151.127 15.4219 151.021 15.2847 150.808 15.2146C150.595 15.138 150.299 15.0647 149.919 14.9945C149.676 14.9498 149.429 14.8956 149.179 14.8318C148.928 14.768 148.696 14.6883 148.483 14.5926C148.278 14.4905 148.111 14.3629 147.982 14.2098C147.853 14.0503 147.788 13.8557 147.788 13.626C147.788 13.205 147.986 12.8509 148.381 12.5638C148.784 12.2768 149.346 12.1332 150.067 12.1332C150.736 12.1332 151.267 12.264 151.662 12.5256C152.065 12.7871 152.304 13.1476 152.38 13.6069H151.002C150.918 13.256 150.603 13.0806 150.056 13.0806C149.782 13.0806 149.57 13.1252 149.418 13.2146C149.273 13.3039 149.201 13.4155 149.201 13.5495C149.201 13.6898 149.311 13.8015 149.532 13.8844C149.752 13.9674 150.045 14.0439 150.409 14.1141C150.804 14.1906 151.165 14.2768 151.492 14.3725C151.826 14.4618 152.092 14.5989 152.289 14.7839C152.487 14.9626 152.585 15.221 152.585 15.5591C152.593 15.8525 152.502 16.1173 152.312 16.3533C152.122 16.5894 151.849 16.7744 151.492 16.9084C151.135 17.0423 150.713 17.1093 150.227 17.1093Z" fill="black"/>
<path d="M156.589 17.1093C156.042 17.1093 155.549 17.0041 155.108 16.7935C154.675 16.583 154.329 16.2927 154.071 15.9227C153.82 15.5463 153.695 15.1125 153.695 14.6213C153.695 14.13 153.824 13.6994 154.083 13.3294C154.341 12.953 154.686 12.6595 155.119 12.449C155.56 12.2385 156.054 12.1332 156.601 12.1332C157.14 12.1332 157.626 12.2385 158.059 12.449C158.5 12.6595 158.845 12.953 159.096 13.3294C159.354 13.6994 159.483 14.13 159.483 14.6213C159.483 15.1125 159.354 15.5463 159.096 15.9227C158.845 16.2927 158.5 16.583 158.059 16.7935C157.619 17.0041 157.129 17.1093 156.589 17.1093ZM156.589 16.0471C156.969 16.0471 157.3 15.9291 157.581 15.693C157.862 15.4506 158.002 15.0934 158.002 14.6213C158.002 14.1492 157.862 13.7951 157.581 13.5591C157.3 13.3166 156.973 13.1954 156.601 13.1954C156.213 13.1954 155.879 13.3166 155.598 13.5591C155.325 13.7951 155.188 14.1492 155.188 14.6213C155.188 15.0934 155.325 15.4506 155.598 15.693C155.879 15.9291 156.209 16.0471 156.589 16.0471Z" fill="black"/>
<path d="M160.787 16.9945V12.248H162.086L162.223 13.138C162.428 12.8318 162.705 12.5894 163.055 12.4107C163.412 12.2257 163.83 12.1332 164.308 12.1332V13.4251H163.898C163.579 13.4251 163.294 13.4666 163.044 13.5495C162.793 13.6324 162.595 13.776 162.451 13.9801C162.314 14.1843 162.246 14.4682 162.246 14.8318V16.9945H160.787Z" fill="black"/>
<path d="M167.641 17.1093C167.14 17.1093 166.699 17.0423 166.319 16.9084C165.939 16.768 165.636 16.5766 165.408 16.3342C165.18 16.0918 165.043 15.8111 164.997 15.4921H166.467C166.513 15.6771 166.634 15.8366 166.832 15.9706C167.037 16.0981 167.299 16.1619 167.618 16.1619C167.937 16.1619 168.169 16.1077 168.313 15.9993C168.465 15.8908 168.541 15.7664 168.541 15.6261C168.541 15.4219 168.435 15.2847 168.222 15.2146C168.009 15.138 167.713 15.0647 167.333 14.9945C167.09 14.9498 166.843 14.8956 166.593 14.8318C166.342 14.768 166.11 14.6883 165.898 14.5926C165.693 14.4905 165.525 14.3629 165.396 14.2098C165.267 14.0503 165.203 13.8557 165.203 13.626C165.203 13.205 165.4 12.8509 165.795 12.5638C166.198 12.2768 166.76 12.1332 167.481 12.1332C168.15 12.1332 168.682 12.264 169.077 12.5256C169.479 12.7871 169.719 13.1476 169.794 13.6069H168.416C168.332 13.256 168.017 13.0806 167.47 13.0806C167.197 13.0806 166.984 13.1252 166.832 13.2146C166.688 13.3039 166.615 13.4155 166.615 13.5495C166.615 13.6898 166.726 13.8015 166.946 13.8844C167.166 13.9674 167.459 14.0439 167.823 14.1141C168.218 14.1906 168.579 14.2768 168.906 14.3725C169.24 14.4618 169.506 14.5989 169.703 14.7839C169.901 14.9626 170 15.221 170 15.5591C170.007 15.8525 169.916 16.1173 169.726 16.3533C169.536 16.5894 169.263 16.7744 168.906 16.9084C168.549 17.0423 168.127 17.1093 167.641 17.1093Z" fill="black"/>
</svg>
